<mxfile host="app.diagrams.net" modified="2023-03-25T18:26:13.220Z" agent="Mozilla/5.0 (Windows NT 10.0; Win64; x64) AppleWebKit/537.36 (KHTML, like Gecko) Chrome/111.0.0.0 Safari/537.36" etag="yuiHTB6oAkXifNgEdHUp" version="21.1.1" type="device">
  <diagram name="Page-1" id="nEHYywS9B0Qo-j-KQp0l">
    <mxGraphModel dx="1113" dy="1642" grid="1" gridSize="10" guides="1" tooltips="1" connect="1" arrows="1" fold="1" page="1" pageScale="1" pageWidth="850" pageHeight="1100" math="0" shadow="0">
      <root>
        <mxCell id="0" />
        <mxCell id="1" parent="0" />
        <mxCell id="k6pgtVe0m970u2q49Taq-1" value="Classname" style="swimlane;fontStyle=1;align=center;verticalAlign=top;childLayout=stackLayout;horizontal=1;startSize=0;horizontalStack=0;resizeParent=1;resizeParentMax=0;resizeLast=0;collapsible=1;marginBottom=0;whiteSpace=wrap;html=1;" vertex="1" parent="1">
          <mxGeometry x="200" y="80" width="200" height="140" as="geometry" />
        </mxCell>
        <mxCell id="k6pgtVe0m970u2q49Taq-5" value="«interface»&lt;br&gt;&lt;b&gt;IPublisher&lt;/b&gt;" style="html=1;whiteSpace=wrap;fillColor=#fff2cc;strokeColor=#d6b656;" vertex="1" parent="k6pgtVe0m970u2q49Taq-1">
          <mxGeometry width="200" height="50" as="geometry" />
        </mxCell>
        <mxCell id="k6pgtVe0m970u2q49Taq-2" value="+ subscribers: List&amp;lt;ISubscriber&amp;gt;" style="text;strokeColor=none;fillColor=none;align=left;verticalAlign=top;spacingLeft=4;spacingRight=4;overflow=hidden;rotatable=0;points=[[0,0.5],[1,0.5]];portConstraint=eastwest;whiteSpace=wrap;html=1;" vertex="1" parent="k6pgtVe0m970u2q49Taq-1">
          <mxGeometry y="50" width="200" height="26" as="geometry" />
        </mxCell>
        <mxCell id="k6pgtVe0m970u2q49Taq-3" value="" style="line;strokeWidth=1;fillColor=none;align=left;verticalAlign=middle;spacingTop=-1;spacingLeft=3;spacingRight=3;rotatable=0;labelPosition=right;points=[];portConstraint=eastwest;strokeColor=inherit;" vertex="1" parent="k6pgtVe0m970u2q49Taq-1">
          <mxGeometry y="76" width="200" height="8" as="geometry" />
        </mxCell>
        <mxCell id="k6pgtVe0m970u2q49Taq-4" value="+ subscribe(ISubscriber): void&lt;br&gt;+ unSubscribe(ISubscriber): void&lt;br&gt;+ notifySubscribers(): void" style="text;strokeColor=none;fillColor=none;align=left;verticalAlign=top;spacingLeft=4;spacingRight=4;overflow=hidden;rotatable=0;points=[[0,0.5],[1,0.5]];portConstraint=eastwest;whiteSpace=wrap;html=1;" vertex="1" parent="k6pgtVe0m970u2q49Taq-1">
          <mxGeometry y="84" width="200" height="56" as="geometry" />
        </mxCell>
        <mxCell id="k6pgtVe0m970u2q49Taq-6" value="Classname" style="swimlane;fontStyle=1;align=center;verticalAlign=top;childLayout=stackLayout;horizontal=1;startSize=0;horizontalStack=0;resizeParent=1;resizeParentMax=0;resizeLast=0;collapsible=1;marginBottom=0;whiteSpace=wrap;html=1;" vertex="1" parent="1">
          <mxGeometry x="610" y="110" width="200" height="110" as="geometry" />
        </mxCell>
        <mxCell id="k6pgtVe0m970u2q49Taq-7" value="«interface»&lt;br&gt;&lt;b&gt;ISubscriber&lt;/b&gt;" style="html=1;whiteSpace=wrap;fillColor=#fff2cc;strokeColor=#d6b656;" vertex="1" parent="k6pgtVe0m970u2q49Taq-6">
          <mxGeometry width="200" height="50" as="geometry" />
        </mxCell>
        <mxCell id="k6pgtVe0m970u2q49Taq-8" value="&amp;nbsp;" style="text;strokeColor=none;fillColor=none;align=left;verticalAlign=top;spacingLeft=4;spacingRight=4;overflow=hidden;rotatable=0;points=[[0,0.5],[1,0.5]];portConstraint=eastwest;whiteSpace=wrap;html=1;" vertex="1" parent="k6pgtVe0m970u2q49Taq-6">
          <mxGeometry y="50" width="200" height="26" as="geometry" />
        </mxCell>
        <mxCell id="k6pgtVe0m970u2q49Taq-9" value="" style="line;strokeWidth=1;fillColor=none;align=left;verticalAlign=middle;spacingTop=-1;spacingLeft=3;spacingRight=3;rotatable=0;labelPosition=right;points=[];portConstraint=eastwest;strokeColor=inherit;" vertex="1" parent="k6pgtVe0m970u2q49Taq-6">
          <mxGeometry y="76" width="200" height="8" as="geometry" />
        </mxCell>
        <mxCell id="k6pgtVe0m970u2q49Taq-10" value="+ update(): void" style="text;strokeColor=none;fillColor=none;align=left;verticalAlign=top;spacingLeft=4;spacingRight=4;overflow=hidden;rotatable=0;points=[[0,0.5],[1,0.5]];portConstraint=eastwest;whiteSpace=wrap;html=1;" vertex="1" parent="k6pgtVe0m970u2q49Taq-6">
          <mxGeometry y="84" width="200" height="26" as="geometry" />
        </mxCell>
        <mxCell id="k6pgtVe0m970u2q49Taq-15" value="NewsPublisher" style="swimlane;fontStyle=1;align=center;verticalAlign=top;childLayout=stackLayout;horizontal=1;startSize=26;horizontalStack=0;resizeParent=1;resizeParentMax=0;resizeLast=0;collapsible=1;marginBottom=0;whiteSpace=wrap;html=1;" vertex="1" parent="1">
          <mxGeometry x="170" y="280" width="230" height="140" as="geometry" />
        </mxCell>
        <mxCell id="k6pgtVe0m970u2q49Taq-16" value="+ articles: List&amp;lt;String&amp;gt;" style="text;strokeColor=none;fillColor=none;align=left;verticalAlign=top;spacingLeft=4;spacingRight=4;overflow=hidden;rotatable=0;points=[[0,0.5],[1,0.5]];portConstraint=eastwest;whiteSpace=wrap;html=1;" vertex="1" parent="k6pgtVe0m970u2q49Taq-15">
          <mxGeometry y="26" width="230" height="24" as="geometry" />
        </mxCell>
        <mxCell id="k6pgtVe0m970u2q49Taq-17" value="" style="line;strokeWidth=1;fillColor=none;align=left;verticalAlign=middle;spacingTop=-1;spacingLeft=3;spacingRight=3;rotatable=0;labelPosition=right;points=[];portConstraint=eastwest;strokeColor=inherit;" vertex="1" parent="k6pgtVe0m970u2q49Taq-15">
          <mxGeometry y="50" width="230" height="8" as="geometry" />
        </mxCell>
        <mxCell id="k6pgtVe0m970u2q49Taq-18" value="+ subscribe(ISubscriber): void&lt;br style=&quot;border-color: var(--border-color);&quot;&gt;+ unSubscribe(ISubscriber): void&lt;br style=&quot;border-color: var(--border-color);&quot;&gt;+ notifySubscribers(): void&lt;br&gt;+ getNewsUpdates(): String&lt;br&gt;+ addNewsUpdates(String): void" style="text;strokeColor=none;fillColor=none;align=left;verticalAlign=top;spacingLeft=4;spacingRight=4;overflow=hidden;rotatable=0;points=[[0,0.5],[1,0.5]];portConstraint=eastwest;whiteSpace=wrap;html=1;" vertex="1" parent="k6pgtVe0m970u2q49Taq-15">
          <mxGeometry y="58" width="230" height="82" as="geometry" />
        </mxCell>
        <mxCell id="k6pgtVe0m970u2q49Taq-21" value="" style="endArrow=block;dashed=1;endFill=0;endSize=12;html=1;rounded=0;" edge="1" parent="1" source="k6pgtVe0m970u2q49Taq-15" target="k6pgtVe0m970u2q49Taq-4">
          <mxGeometry width="160" relative="1" as="geometry">
            <mxPoint x="340" y="230" as="sourcePoint" />
            <mxPoint x="500" y="230" as="targetPoint" />
          </mxGeometry>
        </mxCell>
        <mxCell id="k6pgtVe0m970u2q49Taq-32" value="PhoneSubscriber" style="swimlane;fontStyle=1;align=center;verticalAlign=top;childLayout=stackLayout;horizontal=1;startSize=26;horizontalStack=0;resizeParent=1;resizeParentMax=0;resizeLast=0;collapsible=1;marginBottom=0;whiteSpace=wrap;html=1;" vertex="1" parent="1">
          <mxGeometry x="490" y="310" width="210" height="138" as="geometry" />
        </mxCell>
        <mxCell id="k6pgtVe0m970u2q49Taq-33" value="+ news: String&lt;br&gt;+ newsPublisher: NewsPublisher" style="text;strokeColor=none;fillColor=none;align=left;verticalAlign=top;spacingLeft=4;spacingRight=4;overflow=hidden;rotatable=0;points=[[0,0.5],[1,0.5]];portConstraint=eastwest;whiteSpace=wrap;html=1;" vertex="1" parent="k6pgtVe0m970u2q49Taq-32">
          <mxGeometry y="26" width="210" height="44" as="geometry" />
        </mxCell>
        <mxCell id="k6pgtVe0m970u2q49Taq-34" value="" style="line;strokeWidth=1;fillColor=none;align=left;verticalAlign=middle;spacingTop=-1;spacingLeft=3;spacingRight=3;rotatable=0;labelPosition=right;points=[];portConstraint=eastwest;strokeColor=inherit;" vertex="1" parent="k6pgtVe0m970u2q49Taq-32">
          <mxGeometry y="70" width="210" height="8" as="geometry" />
        </mxCell>
        <mxCell id="k6pgtVe0m970u2q49Taq-35" value="+ PhoneSubscriber(NewsPublisher)&lt;br&gt;+ update(): void" style="text;strokeColor=none;fillColor=none;align=left;verticalAlign=top;spacingLeft=4;spacingRight=4;overflow=hidden;rotatable=0;points=[[0,0.5],[1,0.5]];portConstraint=eastwest;whiteSpace=wrap;html=1;" vertex="1" parent="k6pgtVe0m970u2q49Taq-32">
          <mxGeometry y="78" width="210" height="60" as="geometry" />
        </mxCell>
        <mxCell id="k6pgtVe0m970u2q49Taq-40" value="" style="endArrow=block;dashed=1;endFill=0;endSize=12;html=1;rounded=0;" edge="1" parent="1" source="k6pgtVe0m970u2q49Taq-32" target="k6pgtVe0m970u2q49Taq-10">
          <mxGeometry width="160" relative="1" as="geometry">
            <mxPoint x="671" y="281" as="sourcePoint" />
            <mxPoint x="720" y="220" as="targetPoint" />
            <Array as="points">
              <mxPoint x="595" y="270" />
              <mxPoint x="710" y="270" />
            </Array>
          </mxGeometry>
        </mxCell>
        <mxCell id="k6pgtVe0m970u2q49Taq-43" value="" style="endArrow=block;dashed=1;endFill=0;endSize=12;html=1;rounded=0;" edge="1" parent="1" target="k6pgtVe0m970u2q49Taq-10">
          <mxGeometry width="160" relative="1" as="geometry">
            <mxPoint x="882" y="310" as="sourcePoint" />
            <mxPoint x="710" y="220" as="targetPoint" />
            <Array as="points">
              <mxPoint x="880" y="270" />
              <mxPoint x="710" y="270" />
            </Array>
          </mxGeometry>
        </mxCell>
        <mxCell id="k6pgtVe0m970u2q49Taq-44" value="Relation" style="endArrow=open;html=1;endSize=12;startArrow=diamondThin;startSize=14;startFill=0;edgeStyle=orthogonalEdgeStyle;rounded=0;entryX=-0.003;entryY=0.68;entryDx=0;entryDy=0;entryPerimeter=0;exitX=1;exitY=0.5;exitDx=0;exitDy=0;" edge="1" parent="1" source="k6pgtVe0m970u2q49Taq-2" target="k6pgtVe0m970u2q49Taq-7">
          <mxGeometry relative="1" as="geometry">
            <mxPoint x="410" y="143" as="sourcePoint" />
            <mxPoint x="580" y="130" as="targetPoint" />
            <Array as="points">
              <mxPoint x="440" y="143" />
              <mxPoint x="440" y="144" />
            </Array>
          </mxGeometry>
        </mxCell>
        <mxCell id="k6pgtVe0m970u2q49Taq-45" value="1" style="edgeLabel;resizable=0;html=1;align=left;verticalAlign=top;" connectable="0" vertex="1" parent="k6pgtVe0m970u2q49Taq-44">
          <mxGeometry x="-1" relative="1" as="geometry" />
        </mxCell>
        <mxCell id="k6pgtVe0m970u2q49Taq-46" value="0..n" style="edgeLabel;resizable=0;html=1;align=right;verticalAlign=top;" connectable="0" vertex="1" parent="k6pgtVe0m970u2q49Taq-44">
          <mxGeometry x="1" relative="1" as="geometry">
            <mxPoint x="-20" as="offset" />
          </mxGeometry>
        </mxCell>
        <mxCell id="k6pgtVe0m970u2q49Taq-52" value="EmailSubscriber" style="swimlane;fontStyle=1;align=center;verticalAlign=top;childLayout=stackLayout;horizontal=1;startSize=26;horizontalStack=0;resizeParent=1;resizeParentMax=0;resizeLast=0;collapsible=1;marginBottom=0;whiteSpace=wrap;html=1;" vertex="1" parent="1">
          <mxGeometry x="770" y="310" width="210" height="138" as="geometry" />
        </mxCell>
        <mxCell id="k6pgtVe0m970u2q49Taq-53" value="+ news: String&lt;br&gt;+ newsPublisher: NewsPublisher" style="text;strokeColor=none;fillColor=none;align=left;verticalAlign=top;spacingLeft=4;spacingRight=4;overflow=hidden;rotatable=0;points=[[0,0.5],[1,0.5]];portConstraint=eastwest;whiteSpace=wrap;html=1;" vertex="1" parent="k6pgtVe0m970u2q49Taq-52">
          <mxGeometry y="26" width="210" height="44" as="geometry" />
        </mxCell>
        <mxCell id="k6pgtVe0m970u2q49Taq-54" value="" style="line;strokeWidth=1;fillColor=none;align=left;verticalAlign=middle;spacingTop=-1;spacingLeft=3;spacingRight=3;rotatable=0;labelPosition=right;points=[];portConstraint=eastwest;strokeColor=inherit;" vertex="1" parent="k6pgtVe0m970u2q49Taq-52">
          <mxGeometry y="70" width="210" height="8" as="geometry" />
        </mxCell>
        <mxCell id="k6pgtVe0m970u2q49Taq-55" value="+ EmailSubscriber(NewsPublisher)&lt;br&gt;+ update(): void" style="text;strokeColor=none;fillColor=none;align=left;verticalAlign=top;spacingLeft=4;spacingRight=4;overflow=hidden;rotatable=0;points=[[0,0.5],[1,0.5]];portConstraint=eastwest;whiteSpace=wrap;html=1;" vertex="1" parent="k6pgtVe0m970u2q49Taq-52">
          <mxGeometry y="78" width="210" height="60" as="geometry" />
        </mxCell>
        <mxCell id="k6pgtVe0m970u2q49Taq-56" value="1" style="endArrow=open;html=1;endSize=12;startArrow=diamondThin;startSize=14;startFill=0;edgeStyle=orthogonalEdgeStyle;align=left;verticalAlign=bottom;rounded=0;exitX=0;exitY=0.5;exitDx=0;exitDy=0;" edge="1" parent="1" source="k6pgtVe0m970u2q49Taq-33">
          <mxGeometry x="-0.7408" y="-11" relative="1" as="geometry">
            <mxPoint x="460" y="280" as="sourcePoint" />
            <mxPoint x="400" y="290" as="targetPoint" />
            <Array as="points">
              <mxPoint x="440" y="358" />
              <mxPoint x="440" y="290" />
            </Array>
            <mxPoint as="offset" />
          </mxGeometry>
        </mxCell>
        <mxCell id="k6pgtVe0m970u2q49Taq-58" value="1" style="endArrow=open;html=1;endSize=12;startArrow=diamondThin;startSize=14;startFill=0;edgeStyle=orthogonalEdgeStyle;align=left;verticalAlign=bottom;rounded=0;" edge="1" parent="1" source="k6pgtVe0m970u2q49Taq-53" target="k6pgtVe0m970u2q49Taq-15">
          <mxGeometry x="-0.7408" y="-11" relative="1" as="geometry">
            <mxPoint x="511" y="365" as="sourcePoint" />
            <mxPoint x="425" y="290" as="targetPoint" />
            <mxPoint as="offset" />
            <Array as="points">
              <mxPoint x="740" y="358" />
              <mxPoint x="740" y="460" />
              <mxPoint x="440" y="460" />
              <mxPoint x="440" y="291" />
            </Array>
          </mxGeometry>
        </mxCell>
        <mxCell id="k6pgtVe0m970u2q49Taq-59" value="Main" style="swimlane;fontStyle=1;align=center;verticalAlign=top;childLayout=stackLayout;horizontal=1;startSize=26;horizontalStack=0;resizeParent=1;resizeParentMax=0;resizeLast=0;collapsible=1;marginBottom=0;whiteSpace=wrap;html=1;" vertex="1" parent="1">
          <mxGeometry x="450" y="-110" width="160" height="86" as="geometry" />
        </mxCell>
        <mxCell id="k6pgtVe0m970u2q49Taq-60" value="&amp;nbsp;" style="text;strokeColor=none;fillColor=none;align=left;verticalAlign=top;spacingLeft=4;spacingRight=4;overflow=hidden;rotatable=0;points=[[0,0.5],[1,0.5]];portConstraint=eastwest;whiteSpace=wrap;html=1;" vertex="1" parent="k6pgtVe0m970u2q49Taq-59">
          <mxGeometry y="26" width="160" height="26" as="geometry" />
        </mxCell>
        <mxCell id="k6pgtVe0m970u2q49Taq-61" value="" style="line;strokeWidth=1;fillColor=none;align=left;verticalAlign=middle;spacingTop=-1;spacingLeft=3;spacingRight=3;rotatable=0;labelPosition=right;points=[];portConstraint=eastwest;strokeColor=inherit;" vertex="1" parent="k6pgtVe0m970u2q49Taq-59">
          <mxGeometry y="52" width="160" height="8" as="geometry" />
        </mxCell>
        <mxCell id="k6pgtVe0m970u2q49Taq-62" value="+ main(String []): void" style="text;strokeColor=none;fillColor=none;align=left;verticalAlign=top;spacingLeft=4;spacingRight=4;overflow=hidden;rotatable=0;points=[[0,0.5],[1,0.5]];portConstraint=eastwest;whiteSpace=wrap;html=1;" vertex="1" parent="k6pgtVe0m970u2q49Taq-59">
          <mxGeometry y="60" width="160" height="26" as="geometry" />
        </mxCell>
        <mxCell id="k6pgtVe0m970u2q49Taq-63" value="Use" style="endArrow=open;endSize=12;dashed=1;html=1;rounded=0;entryX=0.726;entryY=-0.025;entryDx=0;entryDy=0;entryPerimeter=0;" edge="1" parent="1" source="k6pgtVe0m970u2q49Taq-62" target="k6pgtVe0m970u2q49Taq-52">
          <mxGeometry width="160" relative="1" as="geometry">
            <mxPoint x="580" y="50" as="sourcePoint" />
            <mxPoint x="920" y="300" as="targetPoint" />
            <Array as="points">
              <mxPoint x="530" />
              <mxPoint x="920" />
            </Array>
          </mxGeometry>
        </mxCell>
        <mxCell id="k6pgtVe0m970u2q49Taq-64" value="Use" style="endArrow=open;endSize=12;dashed=1;html=1;rounded=0;entryX=0.203;entryY=-0.008;entryDx=0;entryDy=0;entryPerimeter=0;" edge="1" parent="1" target="k6pgtVe0m970u2q49Taq-32">
          <mxGeometry x="-0.5136" y="-1" width="160" relative="1" as="geometry">
            <mxPoint x="530" y="-20" as="sourcePoint" />
            <mxPoint x="630" y="170" as="targetPoint" />
            <mxPoint as="offset" />
          </mxGeometry>
        </mxCell>
        <mxCell id="k6pgtVe0m970u2q49Taq-65" value="Use" style="endArrow=open;endSize=12;dashed=1;html=1;rounded=0;entryX=0.05;entryY=-0.016;entryDx=0;entryDy=0;entryPerimeter=0;" edge="1" parent="1" target="k6pgtVe0m970u2q49Taq-15">
          <mxGeometry width="160" relative="1" as="geometry">
            <mxPoint x="530" y="-20" as="sourcePoint" />
            <mxPoint x="140" y="170" as="targetPoint" />
            <Array as="points">
              <mxPoint x="530" />
              <mxPoint x="182" />
            </Array>
          </mxGeometry>
        </mxCell>
      </root>
    </mxGraphModel>
  </diagram>
</mxfile>
